<?xml version="1.0" encoding="utf-8"?>
<!-- Generator: Adobe Illustrator 16.0.0, SVG Export Plug-In . SVG Version: 6.00 Build 0)  -->
<!DOCTYPE svg PUBLIC "-//W3C//DTD SVG 1.1//EN" "http://www.w3.org/Graphics/SVG/1.1/DTD/svg11.dtd">
<svg version="1.1" id="Layer_1" xmlns="http://www.w3.org/2000/svg" xmlns:xlink="http://www.w3.org/1999/xlink" x="0px" y="0px"
	 width="100px" height="77px" viewBox="0 0 100 77" enable-background="new 0 0 100 77" xml:space="preserve">
<polygon points="84,0 16,0 0,55 100,55 "/>
<path d="M0,59v18h100V59H0z M66,72c-2.209,0-4-1.79-4-4s1.791-4,4-4s4,1.79,4,4S68.209,72,66,72z M78,72c-2.209,0-4-1.79-4-4
	s1.791-4,4-4s4,1.79,4,4S80.209,72,78,72z M90,72c-2.209,0-4-1.79-4-4s1.791-4,4-4s4,1.79,4,4S92.209,72,90,72z"/>
<g>
	<g>
		<g enable-background="new    ">
			<defs>
				<rect id="SVGID_1_" x="25.5" y="7.835" enable-background="new    " width="48.996" height="38.728"/>
			</defs>
			<clipPath id="SVGID_2_">
				<use xlink:href="#SVGID_1_"  overflow="visible"/>
			</clipPath>
			<g clip-path="url(#SVGID_2_)">
				<g>
					<g>
						<g>
							<g>
								<defs>
									<polyline id="SVGID_3_" points="74.496,46.562 25.5,46.562 25.5,7.835 74.496,7.835 74.496,46.562 									"/>
								</defs>
								<clipPath id="SVGID_4_">
									<use xlink:href="#SVGID_3_"  overflow="visible"/>
								</clipPath>
								<polyline clip-path="url(#SVGID_4_)" fill="#FFFFFF" points="67.629,7.835 49.998,33.693 32.367,7.835 25.5,10.622 
									45.615,40.132 49.998,46.562 54.372,40.132 74.496,10.622 67.629,7.835 								"/>
							</g>
						</g>
					</g>
				</g>
			</g>
		</g>
	</g>
</g>
</svg>
