<?xml version="1.0" encoding="utf-8"?>
<!-- Generator: Adobe Illustrator 16.0.0, SVG Export Plug-In . SVG Version: 6.00 Build 0)  -->
<!DOCTYPE svg PUBLIC "-//W3C//DTD SVG 1.1//EN" "http://www.w3.org/Graphics/SVG/1.1/DTD/svg11.dtd">
<svg version="1.1" id="Layer_1" xmlns="http://www.w3.org/2000/svg" xmlns:xlink="http://www.w3.org/1999/xlink" x="0px" y="0px"
	 width="100px" height="77px" viewBox="0 0 100 77" enable-background="new 0 0 100 77" xml:space="preserve">
<path fill="#FFFFFF" d="M84,0H16L0,55h100L84,0z M54.38,43.95L50,52.28l-4.38-8.33L25.5,5.73l6.87-3.61L50,35.61L67.63,2.12
	l6.87,3.61L54.38,43.95z"/>
<path fill="#FFFFFF" d="M0,77h100V59H0V77z M90,64c2.21,0,4,1.79,4,4s-1.79,4-4,4s-4-1.79-4-4S87.79,64,90,64z M78,64
	c2.21,0,4,1.79,4,4s-1.79,4-4,4s-4-1.79-4-4S75.79,64,78,64z M66,64c2.21,0,4,1.79,4,4s-1.79,4-4,4s-4-1.79-4-4S63.79,64,66,64z"/>
</svg>
