<?xml version="1.0" encoding="utf-8"?>
<!-- Generator: Adobe Illustrator 16.0.0, SVG Export Plug-In . SVG Version: 6.00 Build 0)  -->
<!DOCTYPE svg PUBLIC "-//W3C//DTD SVG 1.1//EN" "http://www.w3.org/Graphics/SVG/1.1/DTD/svg11.dtd">
<svg version="1.1" id="Layer_1" xmlns="http://www.w3.org/2000/svg" xmlns:xlink="http://www.w3.org/1999/xlink" x="0px" y="0px"
	 width="317.576px" height="187.273px" viewBox="0 0 317.576 187.273" enable-background="new 0 0 317.576 187.273"
	 xml:space="preserve">
<path fill="none" stroke="#F0C419" stroke-width="10" stroke-miterlimit="10" d="M312.577,170.273c0,6.627-5.373,12-12,12H17
	c-6.627,0-12-5.373-12-12V17c0-6.627,5.373-12,12-12h283.577c6.627,0,12,5.373,12,12V170.273z"/>
<text transform="matrix(1 0 0 1 138.7886 149.6968)" font-family="'MyriadPro-Regular'" font-size="12">E67E22</text>
<text transform="matrix(1 0 0 1 138.7886 149.6968)" fill="#E57E25" font-family="'MyriadPro-Regular'" font-size="12">E67E22</text>
<path fill="#E57E25" d="M312.577,169.941c0,6.811-5.547,12.332-12.392,12.332H17.391C10.548,182.273,5,176.751,5,169.941V17.333
	C5,10.521,10.548,5,17.391,5h282.794c6.845,0,12.392,5.521,12.392,12.333V169.941z"/>
<circle fill="none" stroke="#C03A2B" stroke-width="10" stroke-miterlimit="10" cx="177.456" cy="106.697" r="66"/>
<circle fill="#35495E" cx="177.456" cy="106.697" r="66"/>
<rect x="29.122" y="18.697" fill="#ECF0F1" width="61.333" height="22"/>
<rect x="117.122" y="25.697" fill="#2C3E50" width="18" height="15.667"/>
</svg>
