<?xml version="1.0" encoding="utf-8"?>
<!-- Generator: Adobe Illustrator 16.0.0, SVG Export Plug-In . SVG Version: 6.00 Build 0)  -->
<!DOCTYPE svg PUBLIC "-//W3C//DTD SVG 1.1//EN" "http://www.w3.org/Graphics/SVG/1.1/DTD/svg11.dtd">
<svg version="1.1" xmlns="http://www.w3.org/2000/svg" xmlns:xlink="http://www.w3.org/1999/xlink" x="0px" y="0px" width="336px"
	 height="393px" viewBox="0 0 336 393" enable-background="new 0 0 336 393" xml:space="preserve">
<g id="Layer_2">
</g>
<g id="Layer_1">
	<line display="none" fill="none" stroke="#BDC3C7" stroke-width="12" stroke-miterlimit="10" x1="0" y1="12" x2="0" y2="377"/>
</g>
<g id="Layer_3">
	<g>
		<defs>
			<path id="SVGID_1_" d="M333,381c0,6.627-5.373,12-12,12H9c-6.627,0-12-5.373-12-12V12C-3,5.373,2.373,0,9,0h312
				c6.627,0,12,5.373,12,12V381z"/>
		</defs>
		<clipPath id="SVGID_2_">
			<use xlink:href="#SVGID_1_"  overflow="visible"/>
		</clipPath>
		<path clip-path="url(#SVGID_2_)" fill="#FFFFFF" stroke="#ECF0F1" stroke-width="12" stroke-miterlimit="10" d="M326,375
			c0,6.627-5.373,12-12,12H21c-6.627,0-12-5.373-12-12V17c0-6.627,5.373-12,12-12h293c6.627,0,12,5.373,12,12V375z"/>
		
			<line clip-path="url(#SVGID_2_)" fill="none" stroke="#ECF0F1" stroke-width="12" stroke-miterlimit="10" x1="82" y1="111" x2="253" y2="111"/>
		
			<line clip-path="url(#SVGID_2_)" fill="none" stroke="#ECF0F1" stroke-width="12" stroke-miterlimit="10" x1="45" y1="172" x2="253" y2="172"/>
		
			<line clip-path="url(#SVGID_2_)" fill="none" stroke="#ECF0F1" stroke-width="12" stroke-miterlimit="10" x1="45" y1="233" x2="253" y2="233"/>
		
			<line clip-path="url(#SVGID_2_)" fill="none" stroke="#ECF0F1" stroke-width="12" stroke-miterlimit="10" x1="45" y1="294" x2="253" y2="294"/>
	</g>
</g>
</svg>
